<svg xmlns="http://www.w3.org/2000/svg" viewBox="58.17 46.95 420.1 420.1">
  <g class="web">
      <path d="M 222 70 L 280 101" stroke="#dddddd" fill="transparent" style="stroke-width: 21px" />
      <path d="M 338 132 L 280 101" stroke="#dddddd" fill="transparent" style="stroke-width: 21px" />
      <path d="M 338 132 L 345 162" stroke="#dddddd" fill="transparent" style="stroke-width: 21px" />
      <path d="M 352 192 L 345 162" stroke="#dddddd" fill="transparent" style="stroke-width: 21px" />
      <path d="M 352 192 L 319 214" stroke="#dddddd" fill="transparent" style="stroke-width: 21px" />
      <path d="M 286 236 L 319 214" stroke="#dddddd" fill="transparent" style="stroke-width: 21px" />
      <path d="M 286 236 L 319 264" stroke="#dddddd" fill="transparent" style="stroke-width: 21px" />
      <path d="M 352 292 L 319 264" stroke="#dddddd" fill="transparent" style="stroke-width: 21px" />
      <path d="M 352 292 L 350 324" stroke="#dddddd" fill="transparent" style="stroke-width: 21px" />
      <path d="M 348 356 L 350 324" stroke="#dddddd" fill="transparent" style="stroke-width: 21px" />
      <path d="M 348 356 L 276 400" stroke="#dddddd" fill="transparent" style="stroke-width: 21px" />
      <path d="M 204 444 L 276 400" stroke="#dddddd" fill="transparent" style="stroke-width: 21px" />
      <path d="M 204 444 L 160 368" stroke="#dddddd" fill="transparent" style="stroke-width: 21px" />
      <path d="M 116 292 L 160 368" stroke="#dddddd" fill="transparent" style="stroke-width: 21px" />
      <path d="M 116 292 L 169 181" stroke="#dddddd" fill="transparent" style="stroke-width: 21px" />
      <path d="M 222 70 L 169 181" stroke="#dddddd" fill="transparent" style="stroke-width: 21px" />
  </g>

  <g class="link">
      <path d="M 222 70 L 338 132" stroke="#000000" fill="transparent" style="stroke-width: 4.5px" />
      <path d="M 338 132 L 352 192" stroke="#000000" fill="transparent" style="stroke-width: 4.5px" />
      <path d="M 352 192 L 286 236" stroke="#000000" fill="transparent" style="stroke-width: 4.5px" />
      <path d="M 286 236 L 352 292" stroke="#000000" fill="transparent" style="stroke-width: 4.5px" />
      <path d="M 352 292 L 348 356" stroke="#000000" fill="transparent" style="stroke-width: 4.5px" />
      <path d="M 348 356 L 204 444" stroke="#000000" fill="transparent" style="stroke-width: 4.5px" />
      <path d="M 204 444 L 116 292" stroke="#000000" fill="transparent" style="stroke-width: 4.5px" />
      <path d="M 116 292 L 222 70" stroke="#000000" fill="transparent" style="stroke-width: 4.5px" />
      <path d="M 420.4484717455074 196.96657271904624 L 286 236" stroke="#0088ff" fill="transparent" style="stroke-width: 4.5px" />
      <path d="M 286 236 L 238 240" stroke="#0088ff" fill="transparent" style="stroke-width: 4.5px" />
  </g>

  <g class="node">
      <g data-node="n1" transform="translate(222,70)">
        <circle r="20.8" fill="#ccffcc" stroke="black" style="stroke-width: 4.5px" />
      </g>
      <g data-node="n4" transform="translate(338,132)">
        <circle r="20.8" fill="#ff8888" stroke="black" style="stroke-width: 4.5px" />
      </g>
      <g data-node="n5" transform="translate(352,192)">
        <circle r="20.8" fill="#ccffcc" stroke="black" style="stroke-width: 4.5px" />
      </g>
      <g data-node="n6" transform="translate(286,236)">
        <circle r="20.8" fill="#ff8888" stroke="black" style="stroke-width: 4.5px" />
      </g>
      <g data-node="n7" transform="translate(352,292)">
        <circle r="20.8" fill="#ccffcc" stroke="black" style="stroke-width: 4.5px" />
      </g>
      <g data-node="n8" transform="translate(348,356)">
        <circle r="20.8" fill="#ff8888" stroke="black" style="stroke-width: 4.5px" />
      </g>
      <g data-node="n11" transform="translate(204,444)">
        <circle r="20.8" fill="#ccffcc" stroke="black" style="stroke-width: 4.5px" />
      </g>
      <g data-node="n14" transform="translate(116,292)">
        <circle r="20.8" fill="#ff8888" stroke="black" style="stroke-width: 4.5px" />
      </g>
      <g data-node="b1" transform="translate(420.4484717455074,196.96657271904624)">
        <circle r="10.4" fill="#000000" stroke="black" style="stroke-width: 4.5px" />
      </g>
      <g data-node="hb" transform="translate(238,240)">
        <rect x="-15.600000000000001" y="-15.600000000000001" width="31.200000000000003" height="31.200000000000003" fill="#ffff66" stroke="black" style="stroke-width: 4.5px" />
      </g>
  </g>
</svg>
